<?xml version="1.0" encoding="UTF-8" standalone="no"?>
<svg
   xmlns:dc="http://purl.org/dc/elements/1.1/"
   xmlns:cc="http://creativecommons.org/ns#"
   xmlns:rdf="http://www.w3.org/1999/02/22-rdf-syntax-ns#"
   xmlns:svg="http://www.w3.org/2000/svg"
   xmlns="http://www.w3.org/2000/svg"
   viewBox="0 0 145 180"
   height="180"
   width="145"
   xml:space="preserve"
   id="svg2"
   version="1.1"><defs
     id="defs6"><clipPath
       id="clipPath18"
       clipPathUnits="userSpaceOnUse"><path
         id="path16"
         d="M 0,141.73 H 255.12 V 0 H 0 Z" /></clipPath></defs><g
     transform="matrix(1.3333333,0,0,-1.3333333,0,188.97333)"
     id="g10"><g
       id="g12"><g
         clip-path="url(#clipPath18)"
         id="g14"><g
           transform="translate(9.8315,134.3438)"
           id="g80"><path
             id="path82"
             style="fill:#3d72b7;fill-opacity:1;fill-rule:nonzero;stroke:none"
             d="m 0,0 h 88.475 v -120.425 c 0,-3.631 -2.944,-6.575 -6.575,-6.575 H 6.574 C 2.943,-127 0,-124.056 0,-120.425 Z" /></g><g
           transform="translate(74.7188,100.9424)"
           id="g84"><path
             id="path86"
             style="fill:#ffffff;fill-opacity:1;fill-rule:nonzero;stroke:none"
             d="m 0,0 c -0.241,-2.093 -0.503,-5.965 -0.753,-7.404 -0.249,-1.44 -0.576,-3.24 -1.017,-5.583 -0.422,-2.236 -1.155,-4.363 -1.186,-5.131 -0.031,-0.767 -0.152,-1.78 -1.101,-5.885 -0.948,-4.105 -1.306,-6.409 -1.38,-8.357 -0.075,-1.949 0.438,-2.067 0.344,-3.842 -0.094,-1.774 -0.019,-4 0.182,-4.741 0.201,-0.742 0.32,-2.845 0.353,-3.136 0.033,-0.29 -1.401,1.018 -2.047,1.534 -0.646,0.514 -2.797,1.86 -3.2,2.266 -0.403,0.407 -1.969,1.301 -1.498,1.571 0.472,0.272 1.974,1.029 1.096,0.989 -0.876,-0.04 -1.654,-0.449 -2.189,-0.392 -0.536,0.058 -1.65,1.076 -2.316,1.766 -0.665,0.689 -2.558,1.828 -3.667,1.762 -1.109,-0.066 -3.483,-0.392 -4.89,-0.433 -1.406,-0.041 -4.383,0.108 -4.383,0.108 -0.154,0.662 -1.844,3.574 -2.86,5.102 -1.015,1.529 -2.509,2.035 -2.509,2.035 0,0 -0.413,2.029 -0.678,2.934 -0.265,0.905 -1.373,5.745 -1.678,7.189 -0.305,1.443 -1.078,3.644 -2.104,6.545 -1.026,2.902 -0.966,4.571 -2.469,9.101 -1.504,4.53 -1.113,7.334 0.336,8.419 1.405,1.054 4.017,0.199 5.156,-1.215 1.139,-1.413 3.192,-7.85 3.229,-8.508 0.036,-0.658 0.358,-0.931 0.746,-1.721 0.388,-0.79 3.311,-8.682 3.447,-10.031 0.09,-0.882 0.579,-1.233 0.916,-1.782 0.338,-0.549 2.749,-6.973 3.497,-9.328 0.749,-2.354 2.906,-6.534 2.906,-6.534 0,0 -1.524,-0.547 -2.428,-0.85 -0.722,-0.242 -0.795,-0.244 -0.324,-0.38 l -0.093,-0.018 c 0.604,0.005 2.246,0.436 4.028,1.129 1.915,0.745 2.626,2.611 2.891,4.161 0.46,2.698 3.088,9.638 4.156,12.168 1.067,2.531 1.64,7.357 2.924,11.617 0.088,0.295 0.763,2.396 0.766,2.702 0.014,1.422 0.554,5.627 2.475,7.864 1.072,1.249 4.241,0.507 4.83,-0.544 C 0.097,4.097 0.268,2.323 0,0 m -32.611,-34.605 c -0.605,-0.01 -1.425,-0.606 -2.016,-1.284 -0.592,-0.678 -0.795,-2.381 -0.561,-3.481 0.233,-1.099 1.417,-2.724 4.855,-4.929 0.899,-0.577 2.246,-1.589 3.303,-1.97 1.34,-0.483 4.644,-0.44 4.644,-0.44 0,0 0.414,-0.581 0.715,-1.144 0.386,-0.725 0.506,-1.146 0.707,-2.693 0.201,-1.549 -1.09,-2.57 -2.712,-3.094 -1.621,-0.525 -3.216,0.377 -4.06,1.6 -1.054,1.528 -1.947,2.856 -2.458,3.809 -0.511,0.954 -1.739,2.778 -2.316,3.593 -2.907,4.105 -4.85,5.07 -5.331,6.519 -0.285,0.859 -0.081,0.83 -0.944,2.454 -0.271,0.509 -1.008,1.689 -1.14,2.7 -0.132,1.01 0.183,2.466 1.295,3.465 1.111,1 2.314,1.592 3.73,1.401 1.415,-0.191 2.659,-0.919 3.252,-1.437 0.576,-0.503 0.898,-1.023 1.767,-2.557 0.869,-1.535 1.259,-2.691 1.259,-2.691 0,0 -3.384,0.188 -3.989,0.179 m 21.736,45.674 -8.347,-33.384 c -0.084,-0.315 -0.532,-0.312 -0.611,0.004 l -8.812,33.38 H -59.789 V 8.947 c 0,-0.874 0.708,-1.583 1.582,-1.583 2.559,0 4.789,-1.743 5.406,-4.225 l 11.178,-42.903 c -0.055,-0.166 -0.069,-0.052 -0.099,-0.157 0.139,0.102 0.291,0.197 0.459,0.283 0.863,0.441 1.372,0.682 2.392,0.688 1.019,0.005 1.725,-1.158 3.222,-2.554 1.497,-1.397 2.218,-3.101 3.548,-4.859 1.33,-1.759 1.448,-2.548 2.198,-3.74 0.75,-1.191 1.375,-1.946 1.375,-1.946 0,0 0.758,-1.32 0.523,-2.546 -0.236,-1.228 -2.285,-1.846 -3.721,-1.608 -1.395,0.233 -1.602,0.893 -2.738,1.677 -1.137,0.783 -2.899,3.2 -3.462,4.294 -0.4,0.776 -1.527,1.362 -1.895,1.624 -0.368,0.263 -1.172,-0.019 -0.833,-0.315 0.333,-0.29 1.787,-0.555 2.311,-1.787 0.176,-0.446 0.191,-0.615 0.51,-0.906 0.362,-0.331 0.728,-1.555 0.956,-1.876 0.11,-0.155 0.216,-0.303 0.324,-0.448 -0.047,-0.125 -0.235,-0.223 -0.703,-0.275 -1.09,-0.123 -1.721,-0.526 -2.048,-0.758 -0.426,-0.303 -0.026,-0.68 1.005,-0.237 0.896,0.384 0.982,0.359 2.109,0.452 0.601,0.049 0.819,-0.419 1.12,-0.536 0.435,-0.441 0.669,-0.808 1.547,-1.319 1.692,-0.985 4.296,-0.269 5.548,0.293 1.253,0.564 1.503,1.632 1.503,1.632 0,0 1.43,-0.938 3.497,0.302 2.067,1.24 1.647,0.418 0.829,-0.211 -0.498,-0.383 -0.677,-0.927 -0.75,-1.478 -0.029,-0.054 -0.061,-0.109 -0.105,-0.164 -0.206,-0.259 -3.302,-1.124 -3.747,-1.35 -0.445,-0.227 -0.257,-0.853 0.436,-0.481 0.693,0.372 3.269,0.553 3.316,0.051 0.021,-0.221 0.039,-0.247 0.059,-0.316 0.072,-1.321 0.402,-3.445 0.825,-4.913 0.5,-1.735 0.767,-2.174 0.538,-3.481 -0.181,-1.03 -0.237,-2.16 0.317,-0.865 0.324,0.757 0.287,0.917 0.185,2.201 -0.05,0.621 0.288,0.869 1.208,-0.207 3.396,-3.972 9.352,-4.984 9.404,-4.585 0.037,0.292 -5.365,1.811 -7.453,3.499 -0.99,0.799 -1.337,1.319 -2.279,2.612 -0.916,1.26 -1.357,5.215 -1.197,7.09 0.16,1.876 1.358,5.352 1.878,6.151 0.519,0.8 0.647,0.668 1.311,0.044 0.378,-0.355 1.68,-1.087 2.758,-1.769 0.817,-0.517 2.5,-0.99 3.064,-1.111 0.634,-0.136 -3.061,1.495 -3.787,2.243 -0.645,0.664 -1.927,1.422 -2.279,1.837 -0.421,0.497 0.004,1.166 0.029,1.503 0.015,0.192 1.124,-0.069 1.876,0.762 0.667,0.737 1.485,0.845 1.448,1.045 -0.168,0.906 -2.139,-1.167 -3.032,-1.267 -0.722,-0.082 -1.148,-0.372 -1.581,0.527 -0.402,0.837 0.051,0.883 0.852,1.44 0.615,0.429 0.835,1.107 0.707,1.161 -0.155,0.065 0.213,-0.13 -1.082,-0.96 -0.958,-0.614 -2.049,-0.01 -4.899,-0.222 -2.569,-0.191 -4.825,0.581 -7.966,3.189 -2.863,2.376 -2.811,3.539 -2.534,5.087 0.278,1.549 1.53,2.113 1.53,2.113 0,0 0.317,0.259 1.085,0.216 0.768,-0.044 2.863,-0.482 4.341,-0.566 2.304,-0.131 5.553,-0.102 6.923,0.135 1.371,0.236 2.813,0.047 3.851,-0.457 1.038,-0.503 1.606,-1.134 3.02,-2.234 1.413,-1.099 3.788,-2.994 5.039,-3.817 1.251,-0.824 2.644,-1.542 3.069,-2.183 0.426,-0.639 0.972,-0.22 2.407,-1.653 1.036,-1.034 1.331,-2.54 1.341,-3.789 L 11.602,3.223 c 0.648,2.442 2.857,4.141 5.383,4.141 0.831,0 1.504,0.674 1.504,1.505 v 2.2 z" /></g></g></g>
</g></svg>
